# xmcd
#
# Track frame offsets:
#	150
#	13395
#	23394
#	35547
#	50622
#	66517
#	84220
#	97617
#	112635
#	123525
#	136430
#
# Disc length: 2059 seconds
# Revision: 0
# Processed by: cddbd v1.5.2PL0 Copyright (c) Steve Scherf et al.
# Submitted via: dBpowerAMP V12.0
#
DISCID=8308090b
DTITLE=Jeff Weber - This is Jeff Weber
DYEAR=1998
DGENRE=Country
TTITLE0=In Between The I and You
TTITLE1=Everytime I Turn Around
TTITLE2=The Door Swings Both Ways
TTITLE3=Thank-You Card
TTITLE4=This Is Love
TTITLE5=Lonleyville
TTITLE6=Little Ole Me
TTITLE7=When I'm Finished Dying
TTITLE8=Swing Me
TTITLE9=Texas Cowhand
TTITLE10=It's Christmas Time Again
EXTD=
EXTT0=
EXTT1=
EXTT2=
EXTT3=
EXTT4=
EXTT5=
EXTT6=
EXTT7=
EXTT8=
EXTT9=
EXTT10=
PLAYORDER=
